<svg xmlns="http://www.w3.org/2000/svg" version="1.1" xmlns:xlink="http://www.w3.org/1999/xlink" xmlns:svgjs="http://svgjs.dev/svgjs" width="1920" height="1080" preserveAspectRatio="none" viewBox="0 0 1920 1080"><g mask="url(&quot;#SvgjsMask1545&quot;)" fill="none"><rect width="1920" height="1080" x="0" y="0" fill="url(&quot;#SvgjsLinearGradient1546&quot;)"></rect><path d="M1920 0L1523.08 0L1920 417.94z" fill="rgba(255, 255, 255, .1)"></path><path d="M1523.08 0L1920 417.94L1920 426.23L879.1399999999999 0z" fill="rgba(255, 255, 255, .075)"></path><path d="M879.1399999999999 0L1920 426.23L1920 812.1500000000001L597.2099999999998 0z" fill="rgba(255, 255, 255, .05)"></path><path d="M597.2099999999998 0L1920 812.1500000000001L1920 896.3900000000001L554.8899999999998 0z" fill="rgba(255, 255, 255, .025)"></path><path d="M0 1080L237.13 1080L0 726.52z" fill="rgba(0, 0, 0, .1)"></path><path d="M0 726.52L237.13 1080L463.63 1080L0 705.81z" fill="rgba(0, 0, 0, .075)"></path><path d="M0 705.81L463.63 1080L887.37 1080L0 474.18999999999994z" fill="rgba(0, 0, 0, .05)"></path><path d="M0 474.19000000000005L887.37 1080L1444.77 1080L0 163.47000000000003z" fill="rgba(0, 0, 0, .025)"></path></g><defs><mask id="SvgjsMask1545"><rect width="1920" height="1080" fill="#ffffff"></rect></mask><linearGradient x1="50%" y1="0%" x2="50%" y2="100%" gradientUnits="userSpaceOnUse" id="SvgjsLinearGradient1546"><stop stop-color="rgba(76, 51, 186, 1)" offset="0"></stop><stop stop-color="rgba(19, 141, 230, 1)" offset="1"></stop></linearGradient></defs></svg>